<svg xmlns="http://www.w3.org/2000/svg" xmlns:xlink="http://www.w3.org/1999/xlink" width="500" zoomAndPan="magnify" viewBox="0 0 375 374.999991" height="500" preserveAspectRatio="xMidYMid meet" version="1.2"><defs/><g id="bca127061d"><rect x="0" width="375" y="0" height="374.999991" style="fill:#ffffff;fill-opacity:1;stroke:none;"/><rect x="0" width="375" y="0" height="374.999991" style="fill:#8b6cef;fill-opacity:1;stroke:none;"/><g style="fill:#fdf6f1;fill-opacity:1;"><g transform="translate(95.823557, 249.496111)"><path style="stroke:none" d="M 0 0 C 2.925781 -2.457031 5.285156 -6.191406 7.078125 -11.203125 C 8.878906 -16.210938 10.679688 -21.648438 12.484375 -27.515625 C 15.316406 -37.160156 17.796875 -45.953125 19.921875 -53.890625 C 22.054688 -61.835938 23.945312 -69.566406 25.59375 -77.078125 C 27.25 -84.597656 28.859375 -92.421875 30.421875 -100.546875 C 31.984375 -108.679688 33.660156 -117.664062 35.453125 -127.5 C 35.929688 -130.238281 35.929688 -132.929688 35.453125 -135.578125 C 34.984375 -138.234375 33.945312 -140.316406 32.34375 -141.828125 L 95.171875 -141.828125 C 93.648438 -140.316406 92.628906 -138.234375 92.109375 -135.578125 C 91.597656 -132.929688 91.578125 -130.238281 92.046875 -127.5 C 93.835938 -117.664062 95.515625 -108.679688 97.078125 -100.546875 C 98.640625 -92.421875 100.25 -84.597656 101.90625 -77.078125 C 103.5625 -69.566406 105.453125 -61.835938 107.578125 -53.890625 C 109.703125 -45.953125 112.179688 -37.160156 115.015625 -27.515625 C 116.816406 -21.648438 118.613281 -16.210938 120.40625 -11.203125 C 122.207031 -6.191406 124.570312 -2.457031 127.5 0 L 68.921875 0 C 70.535156 -1.894531 71.789062 -4.210938 72.6875 -6.953125 C 73.582031 -9.691406 74.03125 -12.523438 74.03125 -15.453125 C 74.03125 -17.816406 73.601562 -22.210938 72.75 -28.640625 C 71.90625 -35.078125 70.773438 -42.3125 69.359375 -50.34375 L 48.5 -50.34375 C 50.957031 -44.382812 53.203125 -38.472656 55.234375 -32.609375 C 57.273438 -26.753906 58.296875 -20.894531 58.296875 -15.03125 C 58.296875 -12.851562 58.007812 -10.582031 57.4375 -8.21875 C 56.875 -5.863281 55.859375 -3.90625 54.390625 -2.34375 C 52.921875 -0.78125 50.769531 0 47.9375 0 Z M 45.8125 -56.734375 L 68.078125 -56.734375 C 66.753906 -63.535156 65.285156 -70.316406 63.671875 -77.078125 C 62.066406 -83.835938 60.34375 -90.003906 58.5 -95.578125 C 56.65625 -101.160156 54.765625 -105.628906 52.828125 -108.984375 C 50.890625 -112.347656 48.925781 -114.03125 46.9375 -114.03125 C 44.476562 -114.03125 42.539062 -112.988281 41.125 -110.90625 C 39.707031 -108.832031 38.691406 -106.113281 38.078125 -102.75 C 37.460938 -99.394531 37.15625 -95.828125 37.15625 -92.046875 C 37.15625 -85.804688 38.03125 -79.753906 39.78125 -73.890625 C 41.53125 -68.023438 43.539062 -62.304688 45.8125 -56.734375 Z M 45.8125 -56.734375 "/></g></g><g style="fill:#fdf6f1;fill-opacity:1;"><g transform="translate(175.190631, 243.98912)"><path style="stroke:none" d="M 1.0625 -65.984375 C 0.71875 -76.171875 1.632812 -85.457031 3.8125 -93.84375 C 5.988281 -102.226562 9.257812 -109.503906 13.625 -115.671875 C 17.988281 -121.847656 23.296875 -126.644531 29.546875 -130.0625 C 35.804688 -133.488281 42.847656 -135.335938 50.671875 -135.609375 C 58.410156 -135.867188 65.515625 -134.5 71.984375 -131.5 C 78.460938 -128.507812 84.082031 -124.082031 88.84375 -118.21875 C 93.613281 -112.363281 97.367188 -105.328125 100.109375 -97.109375 C 102.859375 -88.890625 104.40625 -79.6875 104.75 -69.5 C 105.09375 -59.3125 104.171875 -50.023438 101.984375 -41.640625 C 99.804688 -33.253906 96.535156 -25.972656 92.171875 -19.796875 C 87.816406 -13.628906 82.507812 -8.832031 76.25 -5.40625 C 70 -1.988281 63.003906 -0.148438 55.265625 0.109375 C 47.441406 0.378906 40.289062 -0.976562 33.8125 -3.96875 C 27.34375 -6.96875 21.722656 -11.394531 16.953125 -17.25 C 12.179688 -23.113281 8.425781 -30.15625 5.6875 -38.375 C 2.945312 -46.59375 1.40625 -55.796875 1.0625 -65.984375 Z M 40.296875 -126.28125 C 37.222656 -126.175781 34.863281 -124.445312 33.21875 -121.09375 C 31.582031 -117.738281 30.550781 -113.238281 30.125 -107.59375 C 29.695312 -101.945312 29.800781 -95.640625 30.4375 -88.671875 C 31.070312 -81.710938 32.128906 -74.519531 33.609375 -67.09375 C 35.085938 -59.664062 36.890625 -52.492188 39.015625 -45.578125 C 41.140625 -38.660156 43.503906 -32.429688 46.109375 -26.890625 C 48.710938 -21.347656 51.453125 -16.976562 54.328125 -13.78125 C 57.210938 -10.582031 60.109375 -9.03125 63.015625 -9.125 C 66.691406 -9.25 69.570312 -10.992188 71.65625 -14.359375 C 73.738281 -17.734375 75.125 -22.242188 75.8125 -27.890625 C 76.507812 -33.546875 76.601562 -39.859375 76.09375 -46.828125 C 75.59375 -53.804688 74.601562 -61.007812 73.125 -68.4375 C 71.644531 -75.863281 69.753906 -83.03125 67.453125 -89.9375 C 65.148438 -96.84375 62.566406 -103.0625 59.703125 -108.59375 C 56.835938 -114.132812 53.765625 -118.492188 50.484375 -121.671875 C 47.203125 -124.859375 43.804688 -126.394531 40.296875 -126.28125 Z M 40.296875 -126.28125 "/></g></g></g></svg>