<svg xmlns="http://www.w3.org/2000/svg" xmlns:xlink="http://www.w3.org/1999/xlink" width="500" zoomAndPan="magnify" viewBox="0 0 375 374.999991" height="500" preserveAspectRatio="xMidYMid meet" version="1.2"><defs><clipPath id="6f19ff40f9"><path d="M 12.175781 12.175781 L 362.824219 12.175781 L 362.824219 362.824219 L 12.175781 362.824219 Z M 12.175781 12.175781 "/></clipPath><clipPath id="52a078301f"><path d="M 187.5 12.175781 C 90.671875 12.175781 12.175781 90.671875 12.175781 187.5 C 12.175781 284.328125 90.671875 362.824219 187.5 362.824219 C 284.328125 362.824219 362.824219 284.328125 362.824219 187.5 C 362.824219 90.671875 284.328125 12.175781 187.5 12.175781 Z M 187.5 12.175781 "/></clipPath><clipPath id="2ae72ea0e0"><path d="M 37.722656 50.078125 L 337.316406 50.078125 L 337.316406 324.882812 L 37.722656 324.882812 Z M 37.722656 50.078125 "/></clipPath></defs><g id="ecebc8fa8a"><g clip-rule="nonzero" clip-path="url(#6f19ff40f9)"><g clip-rule="nonzero" clip-path="url(#52a078301f)"><path style=" stroke:none;fill-rule:nonzero;fill:#f7f3ee;fill-opacity:1;" d="M 12.175781 12.175781 L 362.824219 12.175781 L 362.824219 362.824219 L 12.175781 362.824219 Z M 12.175781 12.175781 "/></g></g><path style=" stroke:none;fill-rule:nonzero;fill:#1d1d1d;fill-opacity:1;" d="M 262.792969 218.882812 C 262.683594 222.773438 261.160156 225.167969 257.984375 226.585938 C 254.71875 228.046875 252.203125 226.765625 250.136719 224.429688 C 248.957031 223.097656 248.21875 221.375 247.324219 219.800781 C 245.101562 215.882812 241.867188 213.140625 237.300781 213.171875 C 232.867188 213.199219 229.214844 215.285156 227.023438 219.410156 C 226.367188 220.648438 225.714844 221.898438 224.925781 223.050781 C 222.40625 226.742188 218.933594 227.988281 215.621094 226.46875 C 211.972656 224.792969 210.398438 221.308594 211.628906 216.960938 C 214.253906 207.6875 220.515625 201.882812 229.582031 199.175781 C 242.933594 195.1875 258.03125 203.144531 262.046875 216.085938 C 262.375 217.148438 262.621094 218.234375 262.792969 218.882812 Z M 262.792969 218.882812 "/><g clip-rule="nonzero" clip-path="url(#2ae72ea0e0)"><path style=" stroke:none;fill-rule:nonzero;fill:#1d1d1d;fill-opacity:1;" d="M 337.15625 207.238281 C 337.054688 194.714844 330.007812 185.90625 317.722656 183.289062 C 315.050781 182.71875 314.039062 181.558594 313.429688 179.179688 C 304.894531 145.71875 270.953125 123.652344 241.773438 124.363281 C 226.464844 124.738281 211.140625 124.429688 195.195312 124.429688 C 195.195312 114.875 195.121094 105.886719 195.296875 96.90625 C 195.316406 95.925781 196.585938 94.628906 197.601562 94.074219 C 205.734375 89.613281 211.207031 80.492188 210.144531 72.320312 C 208.800781 61.957031 203.398438 54.511719 193.304688 51.207031 C 191.367188 50.570312 189.410156 50.234375 187.480469 50.160156 C 185.546875 50.234375 183.59375 50.570312 181.652344 51.207031 C 171.558594 54.511719 166.160156 61.957031 164.8125 72.320312 C 163.75 80.492188 169.226562 89.613281 177.355469 94.074219 C 178.371094 94.628906 179.640625 95.925781 179.660156 96.90625 C 179.835938 105.886719 179.765625 114.875 179.765625 124.429688 C 163.816406 124.429688 148.492188 124.738281 133.183594 124.363281 C 104.003906 123.652344 70.066406 145.71875 61.527344 179.179688 C 60.917969 181.558594 59.910156 182.71875 57.234375 183.289062 C 44.949219 185.90625 37.902344 194.714844 37.800781 207.238281 C 37.71875 217.507812 37.753906 227.785156 37.886719 238.054688 C 38.027344 249.3125 45.324219 258.621094 56.3125 261.3125 C 59.058594 261.984375 60.144531 263.179688 60.765625 265.878906 C 68.578125 299.8125 99.957031 324.75 134.71875 324.761719 C 152.304688 324.769531 169.890625 324.792969 187.480469 324.792969 C 205.066406 324.792969 222.652344 324.769531 240.238281 324.761719 C 275 324.75 306.378906 299.8125 314.191406 265.878906 C 314.8125 263.179688 315.898438 261.984375 318.644531 261.3125 C 329.636719 258.621094 336.933594 249.3125 337.074219 238.054688 C 337.203125 227.785156 337.238281 217.507812 337.15625 207.238281 Z M 300.625 244.222656 C 300.46875 250.34375 299.691406 256.59375 298.148438 262.515625 C 291.414062 288.359375 269.984375 306.519531 243.355469 307.851562 C 224.773438 308.785156 206.109375 308.042969 187.480469 308.035156 C 168.851562 308.042969 150.183594 308.785156 131.601562 307.851562 C 104.972656 306.519531 83.542969 288.359375 76.808594 262.515625 C 75.265625 256.59375 74.492188 250.34375 74.332031 244.222656 C 73.976562 230.296875 74.136719 216.355469 74.246094 202.421875 C 74.515625 167.371094 101.375 140.703125 136.4375 140.660156 C 153.449219 140.636719 170.464844 140.628906 187.480469 140.628906 C 204.492188 140.628906 221.507812 140.636719 238.523438 140.660156 C 273.582031 140.703125 300.441406 167.371094 300.714844 202.421875 C 300.824219 216.355469 300.980469 230.296875 300.625 244.222656 Z M 300.625 244.222656 "/></g><path style=" stroke:none;fill-rule:nonzero;fill:#1d1d1d;fill-opacity:1;" d="M 223.125 254.148438 C 219.785156 252.695312 216.019531 253.824219 213.40625 257.0625 C 213.230469 257.28125 213.042969 257.496094 212.898438 257.734375 C 207.785156 266.261719 197.839844 271.234375 187.480469 271.488281 C 177.117188 271.234375 167.175781 266.261719 162.058594 257.734375 C 161.914062 257.496094 161.730469 257.28125 161.554688 257.0625 C 158.9375 253.824219 155.171875 252.695312 151.832031 254.148438 C 148.394531 255.644531 146.398438 259.515625 147.75 263.675781 C 148.671875 266.507812 150.355469 269.292969 152.332031 271.542969 C 161.65625 282.175781 173.734375 286.726562 187.480469 287.191406 C 201.222656 286.726562 213.300781 282.175781 222.628906 271.542969 C 224.601562 269.292969 226.289062 266.507812 227.207031 263.675781 C 228.5625 259.515625 226.566406 255.644531 223.125 254.148438 Z M 223.125 254.148438 "/><path style=" stroke:none;fill-rule:nonzero;fill:#1d1d1d;fill-opacity:1;" d="M 159.507812 213 C 159.621094 200.636719 150.097656 190.890625 137.851562 190.835938 C 126.238281 190.78125 116.476562 200.570312 116.398438 212.34375 C 116.316406 225.054688 125.378906 234.457031 137.777344 234.511719 C 149.957031 234.570312 159.394531 225.222656 159.507812 213 Z M 159.507812 213 "/></g></svg>