<svg xmlns="http://www.w3.org/2000/svg" xmlns:xlink="http://www.w3.org/1999/xlink" width="500" zoomAndPan="magnify" viewBox="0 0 375 374.999991" height="500" preserveAspectRatio="xMidYMid meet" version="1.2"><defs><clipPath id="7446b2d135"><path d="M 0 102.046875 L 93 102.046875 L 93 273 L 0 273 Z M 0 102.046875 "/></clipPath></defs><g id="2eccb4b892"><g clip-rule="nonzero" clip-path="url(#7446b2d135)"><path style=" stroke:none;fill-rule:nonzero;fill:#0d2f2c;fill-opacity:1;" d="M 66.910156 164.003906 L 94.046875 164.003906 L 94.046875 102.050781 L 66.910156 102.050781 Z M 53.339844 187.46875 L 66.675781 164.003906 L 13.570312 133.027344 L 0 156.492188 Z M 107.148438 187.46875 L 160.957031 156.492188 L 147.386719 133.027344 L 94.046875 164.238281 Z M 147.386719 241.914062 L 160.957031 218.445312 L 107.148438 187.703125 L 93.578125 210.9375 Z M 13.570312 241.914062 L 66.910156 210.9375 L 53.339844 187.703125 L 0 218.445312 Z M 66.910156 272.886719 L 93.578125 272.886719 L 93.578125 211.171875 L 66.910156 211.171875 Z M 66.910156 272.886719 "/></g><g style="fill:#0d2f2c;fill-opacity:1;"><g transform="translate(120.061336, 171.088772)"><path style="stroke:none" d="M 44.984375 0 L 42.546875 -8.15625 L 22.28125 -8.15625 L 19.84375 0 L 0.84375 0 L 21.953125 -57.859375 L 43.5625 -57.859375 L 64.671875 0 Z M 26.15625 -21.109375 L 38.6875 -21.109375 L 32.625 -41.703125 L 32.296875 -41.703125 Z M 26.15625 -21.109375 "/></g></g><g style="fill:#0d2f2c;fill-opacity:1;"><g transform="translate(185.474869, 171.088772)"><path style="stroke:none" d="M 32.046875 -45.5 C 33.328125 -45.5 34.472656 -45.34375 35.484375 -45.03125 C 36.492188 -44.71875 37 -44.535156 37 -44.484375 L 37 -30.4375 L 31.625 -30.4375 C 28.144531 -30.4375 25.632812 -29.539062 24.09375 -27.75 C 22.550781 -25.957031 21.78125 -23.296875 21.78125 -19.765625 L 21.78125 0 L 5.046875 0 L 5.046875 -44.40625 L 18.75 -44.40625 L 19.84375 -37.671875 C 20.851562 -40.253906 22.453125 -42.203125 24.640625 -43.515625 C 26.828125 -44.835938 29.296875 -45.5 32.046875 -45.5 Z M 32.046875 -45.5 "/></g></g><g style="fill:#0d2f2c;fill-opacity:1;"><g transform="translate(222.805999, 171.088772)"><path style="stroke:none" d="M 34.640625 -44.40625 L 34.640625 -33.046875 L 25.234375 -33.046875 L 25.234375 -16.140625 C 25.234375 -14.128906 25.566406 -12.660156 26.234375 -11.734375 C 26.910156 -10.804688 28.144531 -10.34375 29.9375 -10.34375 L 34.640625 -10.34375 L 34.640625 -0.5 C 33.296875 -0.0507812 31.554688 0.3125 29.421875 0.59375 C 27.296875 0.875 25.445312 1.015625 23.875 1.015625 C 18.945312 1.015625 15.148438 0.117188 12.484375 -1.671875 C 9.828125 -3.472656 8.5 -6.53125 8.5 -10.84375 L 8.5 -33.046875 L 2.265625 -33.046875 L 2.265625 -44.40625 L 9.171875 -44.40625 L 12.78125 -57.859375 L 25.234375 -57.859375 L 25.234375 -44.40625 Z M 34.640625 -44.40625 "/></g></g><g style="fill:#0d2f2c;fill-opacity:1;"><g transform="translate(260.137129, 171.088772)"><path style="stroke:none" d="M 28 -45.40625 C 36.132812 -45.40625 42.34375 -43.5 46.625 -39.6875 C 50.914062 -35.875 53.0625 -30.046875 53.0625 -22.203125 L 53.0625 -19.34375 L 19.765625 -19.34375 C 19.765625 -16.144531 20.476562 -13.734375 21.90625 -12.109375 C 23.332031 -10.484375 25.585938 -9.671875 28.671875 -9.671875 C 31.472656 -9.671875 33.53125 -10.257812 34.84375 -11.4375 C 36.164062 -12.613281 36.828125 -14.179688 36.828125 -16.140625 L 53.0625 -16.140625 C 53.0625 -10.765625 51.015625 -6.5625 46.921875 -3.53125 C 42.828125 -0.5 36.859375 1.015625 29.015625 1.015625 C 20.773438 1.015625 14.382812 -0.90625 9.84375 -4.75 C 5.300781 -8.59375 3.03125 -14.410156 3.03125 -22.203125 C 3.03125 -29.828125 5.242188 -35.597656 9.671875 -39.515625 C 14.097656 -43.441406 20.207031 -45.40625 28 -45.40625 Z M 28.671875 -34.734375 C 23.398438 -34.734375 20.457031 -32.238281 19.84375 -27.25 L 36.15625 -27.25 C 36.15625 -29.539062 35.492188 -31.359375 34.171875 -32.703125 C 32.859375 -34.054688 31.023438 -34.734375 28.671875 -34.734375 Z M 28.671875 -34.734375 "/></g></g><g style="fill:#0d2f2c;fill-opacity:1;"><g transform="translate(316.217882, 171.088772)"><path style="stroke:none" d="M 28 -45.40625 C 35.289062 -45.40625 41.191406 -43.847656 45.703125 -40.734375 C 50.210938 -37.628906 52.46875 -32.878906 52.46875 -26.484375 L 36.25 -26.484375 C 36.25 -31.535156 33.5 -34.0625 28 -34.0625 C 22.507812 -34.0625 19.765625 -30.894531 19.765625 -24.5625 L 19.765625 -19.765625 C 19.765625 -13.484375 22.625 -10.34375 28.34375 -10.34375 C 34.0625 -10.34375 36.921875 -12.921875 36.921875 -18.078125 L 52.46875 -18.078125 C 52.46875 -11.628906 50.210938 -6.832031 45.703125 -3.6875 C 41.191406 -0.550781 35.289062 1.015625 28 1.015625 C 20.207031 1.015625 14.097656 -0.945312 9.671875 -4.875 C 5.242188 -8.800781 3.03125 -14.578125 3.03125 -22.203125 C 3.03125 -29.828125 5.242188 -35.597656 9.671875 -39.515625 C 14.097656 -43.441406 20.207031 -45.40625 28 -45.40625 Z M 28 -45.40625 "/></g></g><g style="fill:#0d2f2c;fill-opacity:1;"><g transform="translate(120.061336, 256.791787)"><path style="stroke:none" d="M 33.8125 -58.859375 C 42.382812 -58.859375 49.164062 -56.710938 54.15625 -52.421875 C 59.144531 -48.140625 61.640625 -42.019531 61.640625 -34.0625 L 43.890625 -34.0625 C 43.890625 -37.425781 43.003906 -40.085938 41.234375 -42.046875 C 39.472656 -44.003906 36.96875 -44.984375 33.71875 -44.984375 C 29.96875 -44.984375 27.207031 -43.804688 25.4375 -41.453125 C 23.675781 -39.097656 22.796875 -35.820312 22.796875 -31.625 L 22.796875 -26.234375 C 22.796875 -22.085938 23.675781 -18.820312 25.4375 -16.4375 C 27.207031 -14.050781 29.910156 -12.859375 33.546875 -12.859375 C 37.140625 -12.859375 39.859375 -13.785156 41.703125 -15.640625 C 43.554688 -17.492188 44.484375 -20.101562 44.484375 -23.46875 L 61.640625 -23.46875 C 61.640625 -15.5625 59.210938 -9.503906 54.359375 -5.296875 C 49.515625 -1.085938 42.664062 1.015625 33.8125 1.015625 C 23.9375 1.015625 16.460938 -1.503906 11.390625 -6.546875 C 6.316406 -11.597656 3.78125 -19.054688 3.78125 -28.921875 C 3.78125 -38.796875 6.316406 -46.253906 11.390625 -51.296875 C 16.460938 -56.335938 23.9375 -58.859375 33.8125 -58.859375 Z M 33.8125 -58.859375 "/></g></g><g style="fill:#0d2f2c;fill-opacity:1;"><g transform="translate(185.474869, 256.791787)"><path style="stroke:none" d="M 28 -45.40625 C 35.789062 -45.40625 41.914062 -43.425781 46.375 -39.46875 C 50.832031 -35.519531 53.0625 -29.765625 53.0625 -22.203125 C 53.0625 -14.628906 50.832031 -8.863281 46.375 -4.90625 C 41.914062 -0.957031 35.789062 1.015625 28 1.015625 C 20.207031 1.015625 14.097656 -0.945312 9.671875 -4.875 C 5.242188 -8.800781 3.03125 -14.578125 3.03125 -22.203125 C 3.03125 -29.828125 5.242188 -35.597656 9.671875 -39.515625 C 14.097656 -43.441406 20.207031 -45.40625 28 -45.40625 Z M 28 -34.0625 C 22.507812 -34.0625 19.765625 -30.894531 19.765625 -24.5625 L 19.765625 -19.765625 C 19.765625 -13.484375 22.507812 -10.34375 28 -10.34375 C 33.550781 -10.34375 36.328125 -13.484375 36.328125 -19.765625 L 36.328125 -24.5625 C 36.328125 -30.894531 33.550781 -34.0625 28 -34.0625 Z M 28 -34.0625 "/></g></g><g style="fill:#0d2f2c;fill-opacity:1;"><g transform="translate(241.555622, 256.791787)"><path style="stroke:none" d="M 5.125 0 L 5.125 -16.734375 L 22.953125 -16.734375 L 22.953125 0 Z M 5.125 0 "/></g></g></g></svg>